<mxfile host="Electron" modified="2023-05-13T19:28:58.496Z" agent="Mozilla/5.0 (Windows NT 10.0; Win64; x64) AppleWebKit/537.36 (KHTML, like Gecko) draw.io/21.2.8 Chrome/112.0.5615.165 Electron/24.2.0 Safari/537.36" etag="8gB8Eu9jLuyaZE7nS_fz" version="21.2.8" type="device">
  <diagram name="Página-1" id="lrqV6qmbaWzEieIIiXpI">
    <mxGraphModel dx="1098" dy="1817" grid="1" gridSize="10" guides="1" tooltips="1" connect="1" arrows="1" fold="1" page="1" pageScale="1" pageWidth="827" pageHeight="1169" math="0" shadow="0">
      <root>
        <mxCell id="0" />
        <mxCell id="1" parent="0" />
        <mxCell id="YqJkL-bNsvLmAsjfOQtQ-1" value="end" style="strokeWidth=2;html=1;shape=mxgraph.flowchart.start_1;whiteSpace=wrap;" vertex="1" parent="1">
          <mxGeometry x="350" y="820" width="120" height="60" as="geometry" />
        </mxCell>
        <mxCell id="YqJkL-bNsvLmAsjfOQtQ-7" value="" style="edgeStyle=orthogonalEdgeStyle;rounded=0;orthogonalLoop=1;jettySize=auto;html=1;" edge="1" parent="1" source="YqJkL-bNsvLmAsjfOQtQ-2" target="YqJkL-bNsvLmAsjfOQtQ-4">
          <mxGeometry relative="1" as="geometry" />
        </mxCell>
        <mxCell id="YqJkL-bNsvLmAsjfOQtQ-2" value="Start" style="strokeWidth=2;html=1;shape=mxgraph.flowchart.terminator;whiteSpace=wrap;" vertex="1" parent="1">
          <mxGeometry x="365.5" width="116" height="60" as="geometry" />
        </mxCell>
        <mxCell id="YqJkL-bNsvLmAsjfOQtQ-3" value="1. entrada de datos" style="shape=parallelogram;html=1;strokeWidth=2;perimeter=parallelogramPerimeter;whiteSpace=wrap;rounded=1;arcSize=12;size=0.23;" vertex="1" parent="1">
          <mxGeometry x="337" y="100" width="173" height="40" as="geometry" />
        </mxCell>
        <mxCell id="YqJkL-bNsvLmAsjfOQtQ-8" value="" style="edgeStyle=orthogonalEdgeStyle;rounded=0;orthogonalLoop=1;jettySize=auto;html=1;" edge="1" parent="1" source="YqJkL-bNsvLmAsjfOQtQ-4" target="YqJkL-bNsvLmAsjfOQtQ-5">
          <mxGeometry relative="1" as="geometry" />
        </mxCell>
        <mxCell id="YqJkL-bNsvLmAsjfOQtQ-4" value="2.1 declaro una variable llamada listaContactos:&lt;br&gt;let listaContactos=[];" style="strokeWidth=2;html=1;shape=mxgraph.flowchart.stored_data;whiteSpace=wrap;" vertex="1" parent="1">
          <mxGeometry x="303.5" y="160" width="240" height="70" as="geometry" />
        </mxCell>
        <mxCell id="YqJkL-bNsvLmAsjfOQtQ-9" value="" style="edgeStyle=orthogonalEdgeStyle;rounded=0;orthogonalLoop=1;jettySize=auto;html=1;" edge="1" parent="1" source="YqJkL-bNsvLmAsjfOQtQ-5" target="YqJkL-bNsvLmAsjfOQtQ-6">
          <mxGeometry relative="1" as="geometry" />
        </mxCell>
        <mxCell id="YqJkL-bNsvLmAsjfOQtQ-5" value="2.2 la lista tendra elementos tipo string , &lt;br&gt;el formato de cada elemento es &quot;nombre y apellido&quot;&lt;br&gt;listaContactos=[&quot;camilo estrada&quot;,&quot;beatriz sierra&quot;,&lt;br&gt;&quot;karen rodrigez,&quot;brayan soldado&quot;];" style="shape=parallelogram;html=1;strokeWidth=2;perimeter=parallelogramPerimeter;whiteSpace=wrap;rounded=1;arcSize=12;size=0.23;" vertex="1" parent="1">
          <mxGeometry x="218.5" y="260" width="410" height="90" as="geometry" />
        </mxCell>
        <mxCell id="YqJkL-bNsvLmAsjfOQtQ-11" value="" style="edgeStyle=orthogonalEdgeStyle;rounded=0;orthogonalLoop=1;jettySize=auto;html=1;" edge="1" parent="1" source="YqJkL-bNsvLmAsjfOQtQ-6" target="YqJkL-bNsvLmAsjfOQtQ-10">
          <mxGeometry relative="1" as="geometry" />
        </mxCell>
        <mxCell id="YqJkL-bNsvLmAsjfOQtQ-6" value="3. funcion añadirContacto:&lt;br&gt;function añadirContacto(contacto){&lt;br&gt;listaContacto.splice(listaContacto.length,0,contacto);&lt;br&gt;}" style="rounded=1;whiteSpace=wrap;html=1;absoluteArcSize=1;arcSize=14;strokeWidth=2;" vertex="1" parent="1">
          <mxGeometry x="270" y="390" width="290" height="120" as="geometry" />
        </mxCell>
        <mxCell id="YqJkL-bNsvLmAsjfOQtQ-13" value="" style="edgeStyle=orthogonalEdgeStyle;rounded=0;orthogonalLoop=1;jettySize=auto;html=1;" edge="1" parent="1" source="YqJkL-bNsvLmAsjfOQtQ-10" target="YqJkL-bNsvLmAsjfOQtQ-12">
          <mxGeometry relative="1" as="geometry" />
        </mxCell>
        <mxCell id="YqJkL-bNsvLmAsjfOQtQ-10" value="4. crear funcion borrarContacto&lt;br&gt;function borrarContacto(index,contacto){&lt;br&gt;listaContactos.splice(index,1,contacto);&lt;br&gt;}" style="rounded=1;whiteSpace=wrap;html=1;" vertex="1" parent="1">
          <mxGeometry x="270" y="540" width="280" height="120" as="geometry" />
        </mxCell>
        <mxCell id="YqJkL-bNsvLmAsjfOQtQ-14" value="" style="edgeStyle=orthogonalEdgeStyle;rounded=0;orthogonalLoop=1;jettySize=auto;html=1;" edge="1" parent="1" source="YqJkL-bNsvLmAsjfOQtQ-12" target="YqJkL-bNsvLmAsjfOQtQ-1">
          <mxGeometry relative="1" as="geometry" />
        </mxCell>
        <mxCell id="YqJkL-bNsvLmAsjfOQtQ-12" value="5.crear funcion imprimirContactos(){&lt;br&gt;listaContactos.forEach(element =&amp;gt; {&lt;br&gt;console.log(element);&lt;br&gt;}" style="rounded=1;whiteSpace=wrap;html=1;" vertex="1" parent="1">
          <mxGeometry x="260" y="700" width="300" height="80" as="geometry" />
        </mxCell>
      </root>
    </mxGraphModel>
  </diagram>
</mxfile>
